<?xml version="1.0" encoding="UTF-8" standalone="no"?>
<!DOCTYPE svg PUBLIC "-//W3C//DTD SVG 1.1//EN"
 "http://www.w3.org/Graphics/SVG/1.1/DTD/svg11.dtd">
<!-- Generated by graphviz version 2.38.0 (20140413.2041)
 -->
<!-- Title: models_diagram Pages: 1 -->
<svg width="656pt" height="303pt"
 viewBox="0.00 0.00 656.00 303.00" xmlns="http://www.w3.org/2000/svg" xmlns:xlink="http://www.w3.org/1999/xlink">
<g id="graph0" class="graph" transform="scale(1 1) rotate(0) translate(4 299)">
<title>models_diagram</title>
<polygon fill="none" stroke="none" points="-4,4 -4,-299 652,-299 652,4 -4,4"/>
<!-- _diagram_info -->
<g id="node1" class="node"><title>_diagram_info</title>
<text text-anchor="start" x="8" y="-273.6" font-family="Times,serif" font-size="13.00">Models diagram</text>
<text text-anchor="start" x="8" y="-259.6" font-family="Times,serif" font-size="13.00">Date: Jul 19 2017 &#45; 19:34</text>
<text text-anchor="start" x="8" y="-245.6" font-family="Times,serif" font-size="13.00">Migration version: 20170719231635</text>
<text text-anchor="start" x="8" y="-231.6" font-family="Times,serif" font-size="13.00">Generated by RailRoady 1.5.3</text>
<text text-anchor="start" x="8" y="-217.6" font-family="Times,serif" font-size="13.00">http://railroady.prestonlee.com</text>
</g>
<!-- ApplicationRecord -->
<g id="node2" class="node"><title>ApplicationRecord</title>
<ellipse fill="none" stroke="black" cx="309" cy="-249" rx="77.1866" ry="18"/>
<text text-anchor="middle" x="309" y="-245.3" font-family="Times,serif" font-size="14.00">ApplicationRecord</text>
</g>
<!-- Category -->
<g id="node3" class="node"><title>Category</title>
<path fill="none" stroke="black" d="M416,-203.5C416,-203.5 636,-203.5 636,-203.5 642,-203.5 648,-209.5 648,-215.5 648,-215.5 648,-282.5 648,-282.5 648,-288.5 642,-294.5 636,-294.5 636,-294.5 416,-294.5 416,-294.5 410,-294.5 404,-288.5 404,-282.5 404,-282.5 404,-215.5 404,-215.5 404,-209.5 410,-203.5 416,-203.5"/>
<text text-anchor="middle" x="526" y="-279.3" font-family="Times,serif" font-size="14.00">Category</text>
<polyline fill="none" stroke="black" points="404,-271.5 648,-271.5 "/>
<text text-anchor="start" x="412" y="-256.3" font-family="Times,serif" font-size="14.00">id :integer</text>
<text text-anchor="start" x="412" y="-241.3" font-family="Times,serif" font-size="14.00">name :character varying</text>
<text text-anchor="start" x="412" y="-226.3" font-family="Times,serif" font-size="14.00">created_at :timestamp without time zone</text>
<text text-anchor="start" x="412" y="-211.3" font-family="Times,serif" font-size="14.00">updated_at :timestamp without time zone</text>
</g>
<!-- Item -->
<g id="node4" class="node"><title>Item</title>
<path fill="none" stroke="black" d="M416,-0.5C416,-0.5 636,-0.5 636,-0.5 642,-0.5 648,-6.5 648,-12.5 648,-12.5 648,-154.5 648,-154.5 648,-160.5 642,-166.5 636,-166.5 636,-166.5 416,-166.5 416,-166.5 410,-166.5 404,-160.5 404,-154.5 404,-154.5 404,-12.5 404,-12.5 404,-6.5 410,-0.5 416,-0.5"/>
<text text-anchor="middle" x="526" y="-151.3" font-family="Times,serif" font-size="14.00">Item</text>
<polyline fill="none" stroke="black" points="404,-143.5 648,-143.5 "/>
<text text-anchor="start" x="412" y="-128.3" font-family="Times,serif" font-size="14.00">id :integer</text>
<text text-anchor="start" x="412" y="-113.3" font-family="Times,serif" font-size="14.00">name :character varying</text>
<text text-anchor="start" x="412" y="-98.3" font-family="Times,serif" font-size="14.00">serie :integer</text>
<text text-anchor="start" x="412" y="-83.3" font-family="Times,serif" font-size="14.00">size :integer</text>
<text text-anchor="start" x="412" y="-68.3" font-family="Times,serif" font-size="14.00">description :text</text>
<text text-anchor="start" x="412" y="-53.3" font-family="Times,serif" font-size="14.00">category_id :integer</text>
<text text-anchor="start" x="412" y="-38.3" font-family="Times,serif" font-size="14.00">created_at :timestamp without time zone</text>
<text text-anchor="start" x="412" y="-23.3" font-family="Times,serif" font-size="14.00">updated_at :timestamp without time zone</text>
<text text-anchor="start" x="412" y="-8.3" font-family="Times,serif" font-size="14.00">user_id :integer</text>
</g>
<!-- Category&#45;&gt;Item -->
<g id="edge1" class="edge"><title>Category&#45;&gt;Item</title>
<path fill="none" stroke="#153603" d="M526,-195.092C526,-189.231 526,-183.143 526,-176.972"/>
<ellipse fill="none" stroke="#153603" cx="526" cy="-199.323" rx="4" ry="4"/>
<polygon fill="#153603" stroke="#153603" points="526,-176.534 530.5,-166.534 526,-171.534 526,-166.534 526,-166.534 526,-166.534 526,-171.534 521.5,-166.534 526,-176.534 526,-176.534"/>
</g>
</g>
</svg>
